<svg xmlns="http://www.w3.org/2000/svg" fill="none" viewBox="5.83 8 99.07 96.3">
<path d="M104.858 102.598L93.7236 73.4008C93.6926 73.3192 93.6423 73.2462 93.577 73.1881C93.5117 73.1299 93.4334 73.0883 93.3487 73.0668L66.0147 66.1373L65.9984 63.4043C67.2871 62.7838 68.3844 61.828 69.1746 60.6375C69.7063 59.6772 70.0698 58.6333 70.2494 57.5508C70.3082 57.2832 70.3693 57.0144 70.4347 56.7435C70.9797 54.5545 71.7318 50.2427 71.9443 49.0187C73.5564 47.5771 74.4938 45.2107 74.714 41.9337C74.6693 39.477 73.9728 38.0027 72.8512 37.9897H72.8359C72.8207 37.9897 72.8076 37.9962 72.7923 37.9973C73.2954 36.8282 73.8944 35.7027 74.5832 34.6321C76.0002 32.3038 77.4575 29.8949 77.4575 26.384C77.4575 21.2595 75.2775 19.3849 74.1091 18.7473L76.3981 15.6878L75.9904 15.3614C75.006 14.7562 73.8505 14.4888 72.6997 14.5998L75.4149 11.795L74.5265 11.5534C72.3917 11.0414 70.1629 11.066 68.04 11.6252L70.414 9.54282L69.4809 9.2545C55.2074 4.85027 46.8089 13.3378 45.1598 15.22C44.203 14.9301 43.2034 14.8068 42.2048 14.8555C41.09 14.8017 39.9783 15.0123 38.9609 15.4702C37.9434 15.928 37.0492 16.6201 36.3515 17.4896C32.2029 22.7392 34.82 33.9521 34.9519 34.4896C34.9981 34.6583 35.1007 34.8063 35.2426 34.909C35.3845 35.0117 35.5573 35.0629 35.7324 35.0542C35.8369 35.0443 35.9377 35.0109 36.0274 34.9564C36.1171 34.9019 36.1932 34.8279 36.2501 34.7398C36.5172 35.7103 36.8583 36.7613 37.1984 37.7427C36.1978 37.9244 35.5776 39.3497 35.5362 41.6965C35.7651 45.0693 36.7646 47.4912 38.4977 48.9121L39.0601 56.7968C39.0601 57.8002 39.298 58.7893 39.7545 59.6833C40.4334 60.6138 41.3537 61.3421 42.4162 61.7897L44.4382 62.845L44.4175 66.1395L17.0846 73.0668C16.999 73.0885 16.9199 73.1306 16.8542 73.1895C16.7885 73.2485 16.7382 73.3225 16.7075 73.4052L5.86744 102.598C5.83997 102.666 5.82635 102.738 5.82739 102.811C5.82843 102.884 5.84411 102.956 5.8735 103.022C5.90289 103.089 5.94539 103.149 5.99848 103.199C6.05158 103.249 6.11418 103.288 6.18258 103.313C6.25099 103.339 6.32379 103.35 6.39669 103.347C6.46958 103.343 6.54108 103.326 6.60694 103.294C6.6728 103.263 6.73168 103.219 6.78009 103.164C6.82851 103.11 6.86546 103.046 6.88877 102.977L17.6307 74.0482L42.3334 67.7856L35.8697 72.2649C35.778 72.3282 35.7079 72.418 35.6689 72.5223C35.6299 72.6266 35.6239 72.7403 35.6517 72.8481L43.6512 103.58C43.6816 103.696 43.7499 103.799 43.8454 103.873C43.9408 103.947 44.0581 103.987 44.1788 103.987C44.2252 103.987 44.2714 103.981 44.3161 103.968C44.456 103.932 44.5758 103.842 44.6492 103.718C44.7226 103.593 44.7435 103.445 44.7074 103.306L36.8038 72.9449L44.6453 67.5115L49.8043 103.669C49.8246 103.812 49.9011 103.941 50.0168 104.028C50.1325 104.114 50.2779 104.152 50.4212 104.131C50.5644 104.111 50.6937 104.035 50.7806 103.919C50.8675 103.804 50.9048 103.659 50.8844 103.516L45.7669 67.6583C47.2676 68.4932 48.867 69.1372 50.528 69.5754L52.3363 74.5911L50.722 77.4351C50.6699 77.5263 50.6457 77.6307 50.6523 77.7354L52.1499 103.331C52.158 103.469 52.219 103.6 52.3203 103.695C52.4217 103.79 52.5557 103.843 52.6949 103.843H52.7265C52.8708 103.835 53.0058 103.769 53.1018 103.662C53.1979 103.554 53.2472 103.413 53.2388 103.269L51.7499 77.8322L53.3468 75.0176C54.5517 74.6103 55.8537 74.5871 57.0724 74.9512L58.7401 77.8888L56.2603 103.541C56.2467 103.684 56.2906 103.827 56.3826 103.938C56.4746 104.05 56.607 104.12 56.7508 104.134H56.8042C56.9401 104.134 57.0714 104.084 57.1722 103.993C57.2731 103.902 57.3362 103.777 57.3492 103.642L59.841 77.8214C59.8515 77.7102 59.8275 77.5985 59.7723 77.5015L58.0414 74.4551L60.4503 69.4361C60.459 69.4187 60.4503 69.3991 60.459 69.3817C61.9783 68.9325 63.4485 68.3318 64.8473 67.5887L58.7608 103.501C58.7488 103.572 58.7508 103.644 58.7667 103.714C58.7827 103.784 58.8123 103.85 58.8538 103.908C58.8953 103.966 58.9479 104.016 59.0086 104.054C59.0694 104.092 59.137 104.117 59.2077 104.129C59.238 104.134 59.2686 104.136 59.2992 104.136C59.4282 104.137 59.5534 104.092 59.6526 104.01C59.7518 103.928 59.8185 103.813 59.841 103.686L65.9624 67.5648L74.0546 73.1734L66.1096 103.602C66.0884 103.672 66.0817 103.745 66.0897 103.818C66.0977 103.891 66.1203 103.961 66.1562 104.025C66.1921 104.089 66.2405 104.144 66.2986 104.189C66.3566 104.234 66.4231 104.266 66.494 104.285C66.5649 104.303 66.6388 104.307 66.7113 104.296C66.7838 104.286 66.8534 104.261 66.9159 104.222C66.9784 104.184 67.0326 104.134 67.0751 104.074C67.1177 104.015 67.1478 103.947 67.1636 103.876L75.2002 73.0722C75.2282 72.9643 75.2223 72.8503 75.1833 72.7458C75.1443 72.6413 75.0741 72.5513 74.9822 72.488L68.2612 67.8302L92.8037 74.0514L103.839 102.985C103.878 103.088 103.948 103.176 104.039 103.239C104.13 103.301 104.237 103.335 104.348 103.335C104.414 103.335 104.48 103.323 104.542 103.299C104.677 103.248 104.786 103.145 104.845 103.014C104.904 102.883 104.909 102.733 104.858 102.598ZM40.8957 41.196C40.3798 39.0408 40.2792 36.8074 40.5992 34.6147C40.651 34.256 40.8225 33.9252 41.0859 33.6758C41.3494 33.4264 41.6895 33.2731 42.0511 33.2405C42.2531 33.221 42.4482 33.1561 42.6216 33.0508C42.7951 32.9455 42.9425 32.8025 43.0528 32.6324C43.1134 32.4742 43.139 32.3047 43.1279 32.1357C43.1168 31.9667 43.0693 31.8021 42.9885 31.6532C42.0838 29.7143 42.0075 28.0628 42.7705 26.8736C43.1113 26.3757 43.5676 25.9673 44.1005 25.6831C44.6333 25.399 45.2271 25.2475 45.8312 25.2416C47.9381 25.201 50.0342 25.5519 52.0126 26.2763C53.0291 26.6801 54.1084 26.9036 55.2019 26.9367C56.2954 26.9035 57.3748 26.68 58.3913 26.2763C60.3693 25.552 62.465 25.2011 64.5716 25.2416C65.1759 25.2473 65.7698 25.3987 66.3029 25.6829C66.836 25.967 67.2924 26.3755 67.6334 26.8736C68.3964 28.0617 68.3146 29.7133 67.4067 31.6608C67.3265 31.81 67.2795 31.9747 67.269 32.1437C67.2584 32.3127 67.2846 32.482 67.3456 32.64C67.4561 32.8099 67.6035 32.9528 67.777 33.0581C67.9504 33.1634 68.1453 33.2284 68.3473 33.2482C68.7091 33.2805 69.0494 33.4337 69.3131 33.6831C69.5768 33.9325 69.7485 34.2634 69.8003 34.6223C70.1203 36.815 70.0196 39.0484 69.5038 41.2036L69.337 41.8771H70.7541V45.0889C70.7419 46.3425 70.5939 47.5912 70.3126 48.8131C68.9466 49.7969 67.2704 50.2547 65.5929 50.1024C64.4302 49.9457 63.2879 49.6645 62.1856 49.2635C60.7903 48.7303 59.3181 48.425 57.8256 48.3594C57.9956 48.1762 58.1512 47.9801 58.291 47.773C58.3712 47.6529 58.4004 47.506 58.3721 47.3645C58.3438 47.223 58.2603 47.0985 58.14 47.0184C58.0198 46.9384 57.8726 46.9092 57.7308 46.9375C57.589 46.9658 57.4643 47.0491 57.3841 47.1691C57.1607 47.5718 56.8342 47.9082 56.438 48.1439C56.0418 48.3795 55.5901 48.5061 55.1289 48.5106C54.7387 48.4743 54.3651 48.3356 54.046 48.1086C53.7269 47.8816 53.4736 47.5744 53.3119 47.2181C53.2796 47.1531 53.2346 47.0952 53.1796 47.0479C53.1246 47.0005 53.0607 46.9646 52.9916 46.9422C52.9225 46.9199 52.8496 46.9115 52.7772 46.9177C52.7048 46.9239 52.6344 46.9444 52.5701 46.9782C52.5058 47.0119 52.4489 47.0581 52.4027 47.1141C52.3566 47.1701 52.3221 47.2348 52.3013 47.3042C52.2806 47.3737 52.2739 47.4467 52.2818 47.5187C52.2897 47.5908 52.3119 47.6606 52.3472 47.724C52.4717 47.9503 52.6177 48.1642 52.7832 48.3627C51.3228 48.4419 49.8834 48.7458 48.5159 49.2635C47.4139 49.6643 46.2719 49.9456 45.1096 50.1024C43.5967 50.2438 40.9742 49.0013 39.689 48.2974C39.5815 47.7802 39.4987 47.2674 39.4405 46.7589V41.8695H41.0581L40.8957 41.196ZM51.5079 50.9456C51.5341 50.9728 51.5602 51 51.5853 51.0283C51.8031 51.3062 52.1077 51.5034 52.4508 51.5886C52.5946 51.6148 52.7405 51.6279 52.8868 51.6277C53.4059 51.603 53.9193 51.5078 54.4128 51.3449C54.7413 51.2368 55.0804 51.1639 55.4243 51.1273C55.5096 51.1214 55.5952 51.1214 55.6804 51.1273C55.7298 51.144 55.7776 51.1651 55.8232 51.1904L55.9715 51.2589C56.8847 51.6192 57.89 51.6761 58.8382 51.421L59.0562 51.3797C59.2022 51.3525 59.3309 51.3264 59.4573 51.3013L61.8161 53.016C61.5773 55.6523 60.6737 57.4768 59.2578 58.1655C58.6417 58.4223 57.968 58.5101 57.3065 58.4198C56.645 58.3295 56.0196 58.0644 55.4951 57.652L55.2412 57.4812L54.9632 57.6096C53.2279 58.4071 51.8371 58.5246 50.8212 57.9566C49.5928 57.2658 48.7884 55.513 48.4298 52.7429L51.2932 50.9793C51.3717 50.9652 51.448 50.9521 51.5079 50.9456ZM70.7028 40.7815C70.7192 40.701 70.7366 40.5965 70.7541 40.5029V40.7815H70.7028ZM72.837 39.0744C73.0256 39.0744 73.5837 39.7881 73.624 41.9032C73.6012 43.8835 73.0062 45.8151 71.9105 47.4661L71.8953 47.4792V41.8695H72.1133V41.3255C72.1168 40.836 72.1631 40.3479 72.2517 39.8665C72.4654 39.329 72.7084 39.0744 72.837 39.0744ZM36.3809 27.8528L35.7672 32.3136C35.7465 32.4637 35.7258 32.6008 35.7073 32.727C35.1481 29.5468 34.2183 21.9493 37.2115 18.1663C37.8097 17.4287 38.5745 16.843 39.4432 16.4573C40.3118 16.0715 41.2597 15.8965 42.2091 15.9468C43.121 15.8698 44.039 15.9847 44.9036 16.2841L45.3462 16.7541L45.7353 16.2373C45.8148 16.1285 53.6334 6.04707 68.2176 10.0237L62.5246 15.0013L65.8981 13.4672C68.236 12.4821 70.7889 12.1156 73.3101 12.4032L69.76 16.073L71.3862 15.8043C72.5369 15.6062 73.7166 15.6548 74.847 15.9468L72.3498 19.2924L73.1302 19.4991C73.2621 19.5339 76.373 20.4239 76.373 26.3807C76.373 29.5881 74.992 31.8642 73.6556 34.0663C72.6404 35.5729 71.8581 37.2234 71.335 38.9623C71.3241 38.9623 71.3154 38.9569 71.3045 38.9569C71.1829 38.959 71.0657 39.0023 70.972 39.0798C71.1898 37.5179 71.1529 35.931 70.8631 34.3808C70.7664 33.8259 70.497 33.3156 70.0931 32.9224C69.6892 32.5292 69.1714 32.2732 68.6133 32.1906C68.5435 32.1721 68.4585 32.1504 68.3877 32.1297L68.3953 32.1112C69.7469 29.2149 69.2259 27.3458 68.5512 26.2882C68.1093 25.6378 67.5164 25.1036 66.8231 24.7312C66.1298 24.3588 65.3566 24.1591 64.5694 24.1492C62.3454 24.1099 60.133 24.4787 58.0425 25.2372C57.1371 25.6014 56.1752 25.8057 55.1997 25.8411C54.2239 25.8058 53.2617 25.6014 52.3559 25.2372C50.2654 24.4786 48.0531 24.1098 45.829 24.1492C45.0421 24.1593 44.2693 24.359 43.5764 24.7315C42.8835 25.1039 42.291 25.638 41.8494 26.2882C41.1725 27.3458 40.6504 29.2149 41.9999 32.1036L42.0107 32.1297C41.941 32.1504 41.856 32.1721 41.7851 32.1906C41.2269 32.2728 40.7089 32.5288 40.3049 32.9221C39.901 33.3153 39.6317 33.8258 39.5354 34.3808C39.1837 36.5066 39.2366 38.6795 39.6912 40.7858H39.4885C39.4394 40.664 39.3795 40.5029 39.3086 40.3245C39.2118 39.6497 38.9697 39.0039 38.5991 38.4314C37.8247 36.4583 37.2408 34.4159 36.8551 32.3321L36.3809 27.8528ZM36.624 41.6704C36.6632 39.5085 37.2213 38.7959 37.4099 38.7937C37.492 38.8119 37.565 38.8585 37.6159 38.9253C37.8546 39.5781 38.0737 40.1581 38.2459 40.6052V45.0834C38.25 45.6729 38.2864 46.2616 38.3549 46.8471V47.2116C37.2513 45.5714 36.6498 43.646 36.624 41.6704ZM50.7013 66.1177C52.0451 66.8453 53.5228 67.2932 55.045 67.4342C55.1354 67.4342 55.2248 67.4342 55.3131 67.4342C57.6093 67.3193 59.8403 66.633 61.803 65.4377C62.3589 65.1527 62.9213 64.8654 63.5056 64.5978L63.9961 64.3737C64.3013 64.2351 64.6064 64.0941 64.9116 63.9504L64.9258 66.2407C61.957 68.0323 58.5719 69.0215 55.1038 69.1108C53.897 69.1075 52.6943 68.9707 51.5177 68.7028C51.3848 68.6604 51.2496 68.6256 51.1188 68.5777C51.0804 68.5703 51.0412 68.5677 51.0022 68.5701C49.063 68.0523 47.2114 67.2509 45.5075 66.1917L45.5249 63.4108L50.7013 66.1177ZM57.1323 73.8338C55.855 73.5012 54.5111 73.5211 53.2443 73.8915L51.8197 69.941C54.1634 70.5349 56.616 70.5569 58.9701 70.0052L57.1323 73.8338ZM49.3617 53.2032C49.3634 53.06 49.4216 52.9233 49.5236 52.8227C49.6257 52.7221 49.7633 52.6657 49.9067 52.6657L60.3707 52.7745C60.5153 52.7752 60.6536 52.8332 60.7553 52.9358C60.857 53.0383 60.9137 53.1769 60.913 53.3212C60.9123 53.4655 60.8542 53.6036 60.7514 53.7051C60.6487 53.8066 60.5098 53.8632 60.3653 53.8625H60.3598L49.9013 53.7537C49.8296 53.753 49.7588 53.7382 49.6929 53.7101C49.6269 53.682 49.5672 53.6413 49.5171 53.5901C49.467 53.539 49.4274 53.4785 49.4008 53.4121C49.3741 53.3457 49.3608 53.2747 49.3617 53.2032ZM57.1399 57.1896C57.1021 57.2504 57.0526 57.3032 56.9943 57.3449C56.936 57.3865 56.87 57.4163 56.8001 57.4325C56.7302 57.4487 56.6578 57.4509 56.5871 57.4391C56.5164 57.4273 56.4486 57.4017 56.3878 57.3637C55.9841 57.1251 55.5225 57.0014 55.0533 57.006C54.5841 57.0106 54.1251 57.1433 53.7261 57.3898C53.6617 57.4214 53.5916 57.4401 53.52 57.4448C53.4483 57.4494 53.3765 57.4399 53.3085 57.4168C53.2406 57.3937 53.1778 57.3575 53.1239 57.3102C53.0699 57.2629 53.0258 57.2055 52.9941 57.1412C52.9624 57.0769 52.9437 57.007 52.9391 56.9355C52.9344 56.864 52.944 56.7922 52.9671 56.7244C52.9902 56.6566 53.0265 56.5939 53.0739 56.5401C53.1213 56.4862 53.1788 56.4422 53.2432 56.4106C53.8082 56.0791 54.4526 55.9065 55.108 55.9111C55.7634 55.9157 56.4053 56.0973 56.9656 56.4367C57.0269 56.4745 57.0802 56.5241 57.1222 56.5825C57.1643 56.641 57.1943 56.7072 57.2105 56.7773C57.2267 56.8475 57.2288 56.9201 57.2167 56.9911C57.2046 57.062 57.1785 57.1288 57.1399 57.1896ZM59.6753 35.8648C59.6265 35.7293 59.6336 35.5801 59.6949 35.4497C59.7562 35.3194 59.8667 35.2187 60.0023 35.1696C63.002 34.0914 65.279 34.3993 66.7603 36.0922C66.8107 36.1454 66.8499 36.2082 66.8754 36.2768C66.901 36.3455 66.9123 36.4186 66.9089 36.4917C66.9054 36.5649 66.8872 36.6366 66.8554 36.7025C66.8235 36.7685 66.7786 36.8274 66.7234 36.8756C66.6682 36.9238 66.6038 36.9604 66.534 36.9832C66.4643 37.006 66.3907 37.0145 66.3176 37.0082C66.2445 37.0019 66.1734 36.9809 66.1087 36.9465C66.0439 36.9121 65.9867 36.8651 65.9406 36.8081C64.7656 35.4688 62.9442 35.2664 60.3696 36.1923C60.2344 36.2404 60.0857 36.2333 59.9557 36.1726C59.8257 36.1119 59.7249 36.0025 59.6753 35.8681V35.8648ZM44.3063 36.794C44.2524 36.7469 44.2082 36.6897 44.1765 36.6256C44.1447 36.5615 44.1259 36.4918 44.1212 36.4205C44.1164 36.3492 44.1258 36.2776 44.1488 36.2099C44.1717 36.1421 44.2079 36.0796 44.2551 36.0258C45.7375 34.334 48.0112 34.0217 51.0131 35.1032C51.1491 35.1523 51.26 35.2532 51.3214 35.3839C51.3829 35.5146 51.3898 35.6643 51.3406 35.8001C51.2915 35.9358 51.1903 36.0466 51.0594 36.1079C50.9284 36.1692 50.7785 36.1761 50.6425 36.127C48.0701 35.2011 46.2465 35.4024 45.0737 36.7417C45.0266 36.7956 44.9693 36.8398 44.9052 36.8716C44.841 36.9034 44.7712 36.9222 44.6997 36.9271C44.6283 36.9319 44.5565 36.9227 44.4886 36.8998C44.4208 36.877 44.3581 36.841 44.3041 36.794H44.3063ZM24.1871 84.6192V102.713C24.1871 102.857 24.1297 102.995 24.0274 103.097C23.9252 103.199 23.7866 103.257 23.6421 103.257C23.4975 103.257 23.3589 103.199 23.2567 103.097C23.1545 102.995 23.0971 102.857 23.0971 102.713V84.6192C23.0971 84.4749 23.1545 84.3365 23.2567 84.2345C23.3589 84.1325 23.4975 84.0752 23.6421 84.0752C23.7866 84.0752 23.9252 84.1325 24.0274 84.2345C24.1297 84.3365 24.1871 84.4749 24.1871 84.6192ZM86.7792 84.184V102.498C86.7792 102.643 86.7218 102.781 86.6196 102.883C86.5174 102.985 86.3788 103.042 86.2342 103.042C86.0897 103.042 85.9511 102.985 85.8489 102.883C85.7466 102.781 85.6892 102.643 85.6892 102.498V84.1796C85.6892 84.0353 85.7466 83.897 85.8489 83.795C85.9511 83.6929 86.0897 83.6356 86.2342 83.6356C86.3788 83.6356 86.5174 83.6929 86.6196 83.795C86.7218 83.897 86.7792 84.0353 86.7792 84.1796V84.184ZM43.7526 43.4264H51.5799C51.8923 43.425 52.1914 43.3001 52.4118 43.079C52.6322 42.858 52.756 42.5589 52.756 42.247V41.1013C54.4164 40.546 56.2146 40.5571 57.8681 41.1329V42.3134C57.8686 42.6259 57.9934 42.9254 58.2148 43.1463C58.4363 43.3672 58.7365 43.4914 59.0496 43.4917H66.8769C67.19 43.4914 67.4902 43.3672 67.7117 43.1463C67.9332 42.9254 68.0579 42.6259 68.0585 42.3134V39.1876C68.0582 38.875 67.9336 38.5752 67.712 38.3543C67.4905 38.1334 67.1901 38.0093 66.8769 38.0093H59.054C58.7408 38.0093 58.4404 38.1334 58.2189 38.3543C57.9973 38.5752 57.8727 38.875 57.8724 39.1876V39.9774C56.2041 39.4866 54.4297 39.4847 52.7603 39.972V39.1223C52.7603 38.8097 52.636 38.5099 52.4146 38.2887C52.1933 38.0676 51.893 37.9432 51.5799 37.9429H43.7526C43.4393 37.9432 43.1389 38.0675 42.9174 38.2886C42.6959 38.5098 42.5713 38.8096 42.571 39.1223V42.247C42.5713 42.5597 42.6959 42.8595 42.9174 43.0806C43.1389 43.3018 43.4393 43.4261 43.7526 43.4264ZM58.9624 39.1832C58.9627 39.1592 58.9725 39.1362 58.9896 39.1193C59.0068 39.1024 59.0299 39.0929 59.054 39.0929H66.8813C66.9054 39.0929 66.9285 39.1024 66.9456 39.1193C66.9628 39.1362 66.9726 39.1592 66.9728 39.1832V42.309C66.9726 42.3331 66.9628 42.356 66.9456 42.3729C66.9285 42.3899 66.9054 42.3993 66.8813 42.3993H59.054C59.0299 42.3993 59.0068 42.3899 58.9896 42.3729C58.9725 42.356 58.9627 42.3331 58.9624 42.309V39.1832ZM43.661 39.1179C43.661 39.1059 43.6634 39.094 43.668 39.083C43.6726 39.0719 43.6793 39.0618 43.6878 39.0533C43.6963 39.0448 43.7064 39.0381 43.7175 39.0335C43.7286 39.0289 43.7405 39.0265 43.7526 39.0265H51.5799C51.5918 39.0265 51.6037 39.0289 51.6147 39.0335C51.6258 39.0381 51.6358 39.0449 51.6442 39.0534C51.6526 39.0619 51.6593 39.0719 51.6638 39.083C51.6682 39.0941 51.6705 39.106 51.6703 39.1179V42.247C51.6703 42.2711 51.6608 42.2941 51.6439 42.3113C51.627 42.3284 51.604 42.3381 51.5799 42.3384H43.7526C43.7284 42.3381 43.7053 42.3284 43.6881 42.3113C43.671 42.2942 43.6613 42.2712 43.661 42.247V39.1179ZM64.7689 40.5029C64.6972 40.3777 64.6783 40.2292 64.7163 40.09C64.7544 39.9509 64.8462 39.8325 64.9716 39.7609L65.7422 39.3257C65.8044 39.29 65.8729 39.2669 65.944 39.2576C66.0151 39.2483 66.0873 39.2531 66.1565 39.2717C66.2258 39.2903 66.2907 39.3223 66.3475 39.3659C66.4043 39.4095 66.452 39.4639 66.4878 39.5259C66.5236 39.5879 66.5468 39.6564 66.5561 39.7273C66.5653 39.7983 66.5605 39.8704 66.5419 39.9395C66.5233 40.0086 66.4912 40.0734 66.4475 40.1301C66.4038 40.1868 66.3494 40.2344 66.2872 40.2701L65.5166 40.7053C65.4544 40.7409 65.3858 40.7639 65.3147 40.773C65.2436 40.7821 65.1715 40.7771 65.1023 40.7583C65.0332 40.7395 64.9684 40.7072 64.9117 40.6634C64.8551 40.6196 64.8076 40.5651 64.7721 40.5029H64.7689ZM66.442 40.7325C66.5305 40.8459 66.5704 40.9897 66.5531 41.1324C66.5357 41.2751 66.4625 41.4051 66.3494 41.4941L65.6507 42.0381C65.5371 42.1265 65.393 42.1663 65.2501 42.149C65.1071 42.1317 64.9768 42.0586 64.8877 41.9456C64.7992 41.8322 64.7592 41.6885 64.7766 41.5458C64.794 41.4031 64.8672 41.273 64.9803 41.184L65.679 40.64C65.7932 40.5522 65.9375 40.513 66.0805 40.5312C66.2235 40.5493 66.3535 40.6233 66.442 40.7369V40.7325ZM49.5677 40.5149C49.496 40.3898 49.4769 40.2414 49.5147 40.1023C49.5525 39.9631 49.6441 39.8447 49.7694 39.7729L50.54 39.3377C50.6021 39.302 50.6707 39.2788 50.7418 39.2696C50.8129 39.2603 50.8851 39.2651 50.9543 39.2837C51.0236 39.3023 51.0884 39.3343 51.1453 39.3779C51.2021 39.4215 51.2498 39.4759 51.2856 39.5379C51.3213 39.5999 51.3445 39.6683 51.3538 39.7393C51.3631 39.8103 51.3583 39.8823 51.3397 39.9514C51.3211 40.0206 51.289 40.0853 51.2453 40.1421C51.2016 40.1988 51.1471 40.2464 51.085 40.2821L50.3144 40.7173C50.189 40.7885 50.0405 40.8071 49.9013 40.7692C49.7622 40.7313 49.6438 40.6398 49.5721 40.5149H49.5677ZM51.2398 40.7456C51.3282 40.8591 51.3679 41.003 51.3503 41.1457C51.3328 41.2884 51.2593 41.4184 51.146 41.5072L50.4463 42.0512C50.3511 42.1264 50.2331 42.1671 50.1116 42.1665C49.9981 42.1665 49.8875 42.1312 49.7951 42.0655C49.7027 41.9997 49.6331 41.9068 49.5962 41.7997C49.5592 41.6926 49.5567 41.5767 49.5889 41.468C49.6211 41.3594 49.6865 41.2636 49.7759 41.1938L50.4757 40.6498C50.5902 40.5619 50.735 40.5229 50.8783 40.5414C51.0215 40.56 51.1516 40.6346 51.2398 40.7488V40.7456Z" fill="black"/>
</svg>