<svg xmlns="http://www.w3.org/2000/svg" fill="none" viewBox="3.16 1.88 15.9 17.3">
<path fill-rule="evenodd" clip-rule="evenodd" d="M6.20789 1.88477C5.7267 1.88477 5.3366 2.28196 5.3366 2.77189V3.43724H4.90096C3.93856 3.43724 3.15839 4.2316 3.15839 5.2115V6.98576V7.42932V17.4095C3.15839 18.3894 3.93856 19.1838 4.90096 19.1838H17.3168C18.2792 19.1838 19.0594 18.3894 19.0594 17.4095V5.2115C19.0594 4.2316 18.2792 3.43724 17.3168 3.43724H16.4455V2.77189C16.4455 2.28196 16.0554 1.88477 15.5742 1.88477H15.1386C14.6574 1.88477 14.2673 2.28196 14.2673 2.77189V3.43724H7.51482V2.77189C7.51482 2.28196 7.12472 1.88477 6.64353 1.88477H6.20789ZM7.51482 3.88081V4.76793C7.51482 5.25787 7.12472 5.65506 6.64353 5.65506H6.20789C5.7267 5.65506 5.3366 5.25787 5.3366 4.76793V3.88081H4.90096C4.17916 3.88081 3.59403 4.47658 3.59403 5.2115V6.98576H18.6237V5.2115C18.6237 4.47658 18.0386 3.88081 17.3168 3.88081H16.4455V4.76793C16.4455 5.25787 16.0554 5.65506 15.5742 5.65506H15.1386C14.6574 5.65506 14.2673 5.25787 14.2673 4.76793V3.88081H7.51482ZM18.6237 7.42932H3.59403V17.4095C3.59403 18.1444 4.17916 18.7402 4.90096 18.7402H17.3168C18.0386 18.7402 18.6237 18.1444 18.6237 17.4095V7.42932ZM5.77225 2.77189C5.77225 2.52691 5.96729 2.32833 6.20789 2.32833H6.64353C6.88414 2.32833 7.07918 2.52691 7.07918 2.77189V4.76793C7.07918 5.01291 6.88414 5.2115 6.64353 5.2115H6.20789C5.96729 5.2115 5.77225 5.01291 5.77225 4.76793V2.77189ZM15.1386 2.32833C14.898 2.32833 14.7029 2.52691 14.7029 2.77189V4.76793C14.7029 5.01291 14.898 5.2115 15.1386 5.2115H15.5742C15.8148 5.2115 16.0099 5.01291 16.0099 4.76793V2.77189C16.0099 2.52691 15.8148 2.32833 15.5742 2.32833H15.1386ZM11.3502 9.33855L12.3687 11.5117L14.7133 11.8264L15.2689 11.901L14.8624 12.2938L13.1473 13.9516L13.5779 16.3192L13.6799 16.8803L13.1874 16.6081L11.1089 15.4595L9.0304 16.6081L8.53787 16.8803L8.63989 16.3192L9.07048 13.9516L7.35533 12.2938L6.94888 11.901L7.5045 11.8264L9.84909 11.5117L10.8675 9.33855L11.1089 8.82358L11.3502 9.33855ZM12.3118 11.9515L14.3068 12.2192L12.8474 13.6299L12.6759 13.7956L12.7189 14.0323L13.0853 16.047L11.3167 15.0696L11.1089 14.9548L10.9011 15.0696L9.13245 16.047L9.49883 14.0323L9.54189 13.7956L9.3704 13.6299L7.91093 12.2192L9.906 11.9515L10.1404 11.92L10.2423 11.7027L11.1089 9.85355L11.9755 11.7027L12.0773 11.92L12.3118 11.9515Z" fill="black"/>
</svg>