<svg xmlns="http://www.w3.org/2000/svg" fill="none" viewBox="0 0 13 13">
<path d="M6.68239 0.0021292C6.65959 0.0021292 6.65959 0.0021292 6.65959 0.0021292C3.05726 -0.089069 0.0933273 2.76087 0.0021292 6.3404C-0.0890689 9.91993 2.76087 12.9067 6.34039 12.9979C9.94272 13.0891 12.9067 10.2391 12.9979 6.6596C13.0891 3.08007 10.2619 0.0933274 6.68239 0.0021292ZM12.2455 7.84517C11.2879 8.00477 10.2619 8.11877 9.19034 8.18717C9.32713 7.04719 9.32713 5.88441 9.19034 4.74443C10.1707 4.67604 11.1055 4.58484 12.0175 4.42524C12.4279 5.54242 12.5191 6.7052 12.2455 7.84517ZM6.52279 12.3823C5.65641 12.3823 4.74443 10.9231 4.35684 8.66596C5.06362 8.71156 5.77041 8.73435 6.49999 8.73435C7.22958 8.73435 7.95916 8.71156 8.68875 8.66596C8.30115 10.9459 7.36637 12.3823 6.52279 12.3823ZM6.49999 8.27836C5.74761 8.27836 5.01802 8.25556 4.28844 8.20997C4.15164 7.06999 4.15164 5.90721 4.28844 4.76723C5.01802 4.81283 5.74761 4.83563 6.49999 4.83563C7.27518 4.83563 8.02756 4.81283 8.75714 4.76723C8.89394 5.93001 8.89394 7.06999 8.75714 8.20997C8.00476 8.25556 7.25238 8.27836 6.49999 8.27836ZM6.52279 0.617717C7.38917 0.640517 8.32395 2.07689 8.68875 4.35684C7.98196 4.40244 7.25238 4.42524 6.49999 4.42524C5.77041 4.42524 5.06362 4.40244 4.35684 4.35684C4.72163 2.07689 5.65641 0.617717 6.52279 0.617717ZM11.8579 4.01485C10.9915 4.15165 10.0795 4.24284 9.14474 4.31124C8.89394 2.71528 8.34675 1.4157 7.68557 0.731715C9.50953 1.09651 11.0599 2.32768 11.8579 4.01485ZM5.38282 0.708915C4.69883 1.3929 4.17444 2.69248 3.90085 4.31124C2.94327 4.24284 2.03129 4.15165 1.14211 4.01485C1.96289 2.30488 3.51326 1.07371 5.38282 0.708915ZM0.982509 4.44804C1.89449 4.58484 2.85207 4.69884 3.85525 4.76723C3.71845 5.90721 3.71845 7.06999 3.85525 8.20997C2.78367 8.14157 1.73489 8.02757 0.777313 7.86797C0.480919 6.7052 0.572117 5.54242 0.982509 4.44804ZM0.89131 8.32396C1.84889 8.48356 2.85207 8.57476 3.90085 8.64316C4.15164 10.2847 4.69883 11.6071 5.40562 12.3139C3.28526 11.9035 1.5525 10.3759 0.89131 8.32396ZM7.63997 12.2911C8.32395 11.5843 8.87114 10.2619 9.14474 8.64316C10.1707 8.57476 11.1739 8.46076 12.1315 8.32396C11.4475 10.3531 9.73752 11.8807 7.63997 12.2911Z" fill="#F26A21"/>
</svg>