<svg xmlns="http://www.w3.org/2000/svg" fill="none" viewBox="0 0 167.49 36">
<path d="M4.53263 0.00390625H20.3724C23.4947 0.00390625 26.1645 1.10194 28.3738 3.298C30.583 5.49406 31.6877 8.14797 31.6877 11.2516C31.6877 13.8164 30.9417 16.0651 29.4458 18.0019C30.9377 19.9386 31.6877 22.1874 31.6877 24.7521C31.6877 27.8558 30.583 30.5097 28.3738 32.7058C26.1645 34.9018 23.4947 35.9998 20.3724 35.9998H15.8438C14.5925 35.9998 13.5245 35.5623 12.64 34.683C11.7555 33.8038 11.3153 32.7463 11.3153 31.4983C11.3153 30.2504 11.7555 29.1929 12.64 28.3136C13.5245 27.4344 14.5884 26.9968 15.8438 26.9968H20.3724C20.992 26.9968 21.5218 26.774 21.9661 26.3323C22.4104 25.8907 22.6346 25.3599 22.6346 24.7481C22.6346 24.1363 22.4104 23.6055 21.9661 23.1638C21.5218 22.7222 20.9879 22.4993 20.3724 22.4993H9.05711V26.9968C9.05711 28.2407 8.61689 29.3023 7.73238 30.1815C6.84786 31.0607 5.77992 31.4983 4.52856 31.4983C3.27719 31.4983 2.20925 31.0607 1.32473 30.1815C0.44022 29.3023 0 28.2448 0 26.9968V4.50542C0 3.26153 0.44022 2.19997 1.32473 1.32073C2.20925 0.441498 3.27719 0.00390625 4.53263 0.00390625ZM9.05711 9.00289V13.5044H20.3724C20.992 13.5044 21.5218 13.2816 21.9661 12.8399C22.4104 12.3983 22.6346 11.8675 22.6346 11.2557C22.6346 10.6439 22.4104 10.1131 21.9661 9.67143C21.5218 9.22979 20.9879 9.00694 20.3724 9.00694H9.05711V9.00289Z" fill="#F26A21"/>
<path d="M56.5887 4.50542C56.5887 3.26153 57.0289 2.19997 57.9134 1.32073C58.7979 0.441498 59.8618 0.00390625 61.1172 0.00390625C62.3727 0.00390625 63.4365 0.441498 64.321 1.32073C65.2056 2.19997 65.6458 3.25748 65.6458 4.50542V15.7531C65.6458 20.1047 64.1009 23.8162 61.0072 26.8915C57.9134 29.9668 54.1797 31.5024 49.802 31.5024C45.4242 31.5024 41.6905 29.9668 38.5967 26.8915C35.503 23.8162 33.9581 20.1047 33.9581 15.7531V4.50542C33.9581 3.26153 34.3983 2.19997 35.2829 1.32073C36.1674 0.441498 37.2312 0.00390625 38.4867 0.00390625C39.7421 0.00390625 40.806 0.441498 41.6905 1.32073C42.575 2.19997 43.0152 3.25748 43.0152 4.50542V15.7531C43.0152 17.6129 43.6796 19.2012 45.0085 20.5221C46.3373 21.843 47.9351 22.5034 49.806 22.5034C51.677 22.5034 53.2748 21.843 54.6036 20.5221C55.9324 19.2012 56.5968 17.6129 56.5968 15.7531V4.50542H56.5887Z" fill="#F26A21"/>
<path d="M72.4285 9.00304C71.1771 9.00304 70.1092 8.56545 69.2246 7.68621C68.3401 6.80698 67.8999 5.74946 67.8999 4.50152C67.8999 3.25357 68.3401 2.19606 69.2246 1.31683C70.1092 0.437591 71.173 0 72.4285 0H88.2723C91.3946 0 94.0644 1.09803 96.2737 3.29409C98.4829 5.49015 99.5876 8.14406 99.5876 11.2477C99.5876 14.3514 98.4829 17.0053 96.2737 19.2013C94.0644 21.3974 91.3946 22.4954 88.2723 22.4954H79.2192C78.5997 22.4954 78.0698 22.7183 77.6255 23.1599C77.1812 23.6016 76.957 24.1324 76.957 24.7442C76.957 25.356 77.1812 25.8868 77.6255 26.3284C78.0698 26.7701 78.6038 26.9929 79.2192 26.9929H83.7437C84.9951 26.9929 86.063 27.4305 86.9475 28.3097C87.8321 29.189 88.2723 30.2465 88.2723 31.4944C88.2723 32.7424 87.8321 33.7999 86.9475 34.6791C86.063 35.5584 84.9992 35.9959 83.7437 35.9959H79.2192C76.0969 35.9959 73.4271 34.8979 71.2179 32.7019C69.0086 30.5058 67.904 27.8519 67.904 24.7482C67.904 21.6446 69.0086 18.9907 71.2179 16.7946C73.4271 14.5985 76.0969 13.5005 79.2192 13.5005H88.2723C88.8919 13.5005 89.4217 13.2777 89.866 12.836C90.3103 12.3944 90.5345 11.8636 90.5345 11.2518C90.5345 10.64 90.3103 10.1092 89.866 9.66753C89.4217 9.22589 88.8878 9.00304 88.2723 9.00304H72.4285Z" fill="#F26A21"/>
<path d="M106.378 9.00304C105.127 9.00304 104.059 8.56545 103.174 7.68621C102.29 6.80698 101.85 5.74946 101.85 4.50152C101.85 3.25357 102.29 2.19606 103.174 1.31683C104.059 0.437591 105.123 0 106.378 0H122.222C125.344 0 128.014 1.09803 130.224 3.29409C132.433 5.49015 133.537 8.14406 133.537 11.2477C133.537 14.3514 132.433 17.0053 130.224 19.2013C128.014 21.3974 125.344 22.4954 122.222 22.4954H113.169C112.55 22.4954 112.02 22.7183 111.575 23.1599C111.131 23.6016 110.907 24.1324 110.907 24.7442C110.907 25.356 111.131 25.8868 111.575 26.3284C112.02 26.7701 112.554 26.9929 113.169 26.9929H117.694C118.945 26.9929 120.013 27.4305 120.897 28.3097C121.782 29.189 122.222 30.2465 122.222 31.4944C122.222 32.7424 121.782 33.7999 120.897 34.6791C120.013 35.5584 118.949 35.9959 117.694 35.9959H113.169C110.047 35.9959 107.377 34.8979 105.168 32.7019C102.958 30.5058 101.854 27.8519 101.854 24.7482C101.854 21.6446 102.958 18.9907 105.168 16.7946C107.377 14.5985 110.047 13.5005 113.169 13.5005H122.222C122.842 13.5005 123.372 13.2777 123.816 12.836C124.26 12.3944 124.484 11.8636 124.484 11.2518C124.484 10.64 124.26 10.1092 123.816 9.66753C123.372 9.22589 122.838 9.00304 122.222 9.00304H106.378Z" fill="#F26A21"/>
<path d="M140.328 0.00390625H156.172C159.294 0.00390625 161.964 1.10194 164.173 3.298C166.383 5.49406 167.487 8.14797 167.487 11.2516C167.487 14.3553 166.387 17.0051 164.182 19.1931C163.953 19.42 163.729 19.6266 163.501 19.8211L166.693 24.4564C167.402 25.4774 167.638 26.5957 167.406 27.8193C167.174 29.043 166.542 30.0073 165.515 30.7123C164.475 31.4173 163.342 31.6523 162.119 31.4213C160.896 31.1904 159.93 30.5624 159.221 29.5413C159.205 29.5251 159.197 29.513 159.197 29.4968L154.375 22.4993H144.845V26.9968C144.845 28.2407 144.404 29.3023 143.52 30.1815C142.635 31.0607 141.567 31.4983 140.316 31.4983C139.065 31.4983 137.997 31.0607 137.112 30.1815C136.228 29.3023 135.787 28.2448 135.787 26.9968V4.50542C135.787 3.26153 136.228 2.19997 137.112 1.32073C137.997 0.441498 139.061 0.00390625 140.316 0.00390625L140.328 0.00390625ZM144.853 9.00289V13.5044H156.168C156.788 13.5044 157.317 13.2816 157.762 12.8399C158.206 12.3983 158.43 11.8675 158.43 11.2557C158.43 10.6439 158.206 10.1131 157.762 9.67143C157.317 9.22979 156.784 9.00694 156.168 9.00694H144.853V9.00289Z" fill="#F26A21"/>
</svg>