<svg xmlns="http://www.w3.org/2000/svg" fill="none" viewBox="6.42 1.61 91.08 99.97">
<g clip-path="url(#clip0_62_2418)">
<path d="M63.2775 32.96H55.1525V36.185H63.2775V32.96Z" fill="#FBBF49"/>
<path d="M81.1525 32.96H73.0275V36.185H81.1525V32.96Z" fill="#FBBF49"/>
<path d="M74.7632 49.3683L58.5117 89.6875L61.5293 90.8852L77.7808 50.566L74.7632 49.3683Z" fill="#FBBF49"/>
<path d="M55.965 67.7248C57.7327 67.7248 59.4607 67.2047 60.9304 66.2302C62.4002 65.2556 63.5457 63.8705 64.2222 62.25C64.8987 60.6294 65.0756 58.8462 64.7308 57.1258C64.3859 55.4055 63.5347 53.8252 62.2848 52.5849C61.0349 51.3446 59.4423 50.4999 57.7086 50.1577C55.9749 49.8155 54.1779 49.9911 52.5448 50.6624C50.9117 51.3337 49.5158 52.4704 48.5338 53.9288C47.5517 55.3873 47.0275 57.102 47.0275 58.8561C47.0318 61.2069 47.9748 63.4602 49.65 65.1225C51.3252 66.7848 53.596 67.7205 55.965 67.7248ZM55.965 53.2123C57.0899 53.2123 58.1895 53.5433 59.1248 54.1634C60.0601 54.7836 60.7891 55.665 61.2196 56.6963C61.6501 57.7275 61.7627 58.8623 61.5432 59.9571C61.3238 61.0519 60.7821 62.0575 59.9867 62.8468C59.1913 63.6361 58.1779 64.1736 57.0746 64.3914C55.9713 64.6091 54.8278 64.4974 53.7885 64.0702C52.7493 63.643 51.861 62.9197 51.236 61.9916C50.6111 61.0634 50.2775 59.9723 50.2775 58.8561C50.2775 57.3592 50.8767 55.9237 51.9434 54.8653C53.01 53.8069 54.4566 53.2123 55.965 53.2123Z" fill="#FBBF49"/>
<path d="M71.4025 81.4312C71.4025 83.1853 71.9266 84.9 72.9087 86.3585C73.8908 87.8169 75.2866 88.9537 76.9197 89.6249C78.5528 90.2962 80.3499 90.4718 82.0836 90.1296C83.8173 89.7874 85.4098 88.9427 86.6597 87.7024C87.9097 86.4621 88.7609 84.8818 89.1057 83.1615C89.4506 81.4411 89.2736 79.6579 88.5971 78.0373C87.9207 76.4168 86.7751 75.0317 85.3054 74.0572C83.8356 73.0826 82.1076 72.5625 80.34 72.5625C77.9709 72.5668 75.7001 73.5025 74.0249 75.1648C72.3498 76.8271 71.4068 79.0804 71.4025 81.4312ZM86.0275 81.4312C86.0275 82.5475 85.6939 83.6386 85.069 84.5667C84.444 85.4949 83.5557 86.2182 82.5165 86.6454C81.4772 87.0726 80.3337 87.1843 79.2304 86.9666C78.1271 86.7488 77.1137 86.2113 76.3183 85.422C75.5229 84.6327 74.9812 83.6271 74.7618 82.5323C74.5423 81.4375 74.6549 80.3027 75.0854 79.2715C75.5159 78.2402 76.2449 77.3588 77.1802 76.7386C78.1155 76.1185 79.2151 75.7875 80.34 75.7875C81.8484 75.7875 83.295 76.3821 84.3616 77.4405C85.4283 78.4989 86.0275 79.9344 86.0275 81.4312Z" fill="#FBBF49"/>
<path d="M29.6888 20.2367C29.0149 20.7177 28.2506 21.0598 27.4412 21.2426C26.6318 21.4254 25.7936 21.4452 24.9763 21.3009C24.1545 21.1636 23.3682 20.8664 22.6627 20.4263C21.9571 19.9863 21.3462 19.4122 20.865 18.7371C20.6165 18.3894 20.2394 18.1536 19.8161 18.081C19.3929 18.0085 18.9579 18.1052 18.6063 18.3501L10.27 24.1873C8.29016 25.5958 6.95299 27.725 6.55102 30.1093C6.14904 32.4935 6.71498 34.9387 8.12503 36.9099L17.2413 49.6809C17.4998 50.0224 17.8757 50.2576 18.2975 50.3421C18.7241 50.4069 19.1596 50.309 19.5163 50.0679C19.9797 49.7339 20.507 49.4972 21.0659 49.3725C21.6247 49.2477 22.2033 49.2374 22.7663 49.3423C23.6079 49.4859 24.3878 49.8736 25.0076 50.4565C25.6274 51.0395 26.0593 51.7916 26.2488 52.6178C26.4383 53.4441 26.3769 54.3076 26.0723 55.0993C25.7678 55.891 25.2337 56.5754 24.5375 57.0662C24.3618 57.1884 24.2122 57.3439 24.0973 57.5238C23.9825 57.7037 23.9047 57.9044 23.8684 58.1143C23.8322 58.3242 23.8382 58.5391 23.8861 58.7467C23.934 58.9543 24.0228 59.1504 24.1475 59.3237L38.7725 79.8347V91.9123C38.7725 94.4783 39.7998 96.9392 41.6282 98.7536C43.4567 100.568 45.9367 101.587 48.5225 101.587H87.75C90.3359 101.587 92.8158 100.568 94.6443 98.7536C96.4728 96.9392 97.5 94.4783 97.5 91.9123V41.0541C97.5 40.6264 97.3288 40.2163 97.0241 39.9138C96.7193 39.6114 96.306 39.4416 95.875 39.4416C94.7351 39.255 93.6989 38.6727 92.9514 37.7985C92.2038 36.9243 91.7935 35.8151 91.7935 34.6686C91.7935 33.5221 92.2038 32.4128 92.9514 31.5386C93.6989 30.6645 94.7351 30.0822 95.875 29.8956C96.306 29.8956 96.7193 29.7257 97.0241 29.4233C97.3288 29.1209 97.5 28.7107 97.5 28.2831V11.2873C97.5 8.72134 96.4728 6.26046 94.6443 4.44605C92.8158 2.63163 90.3359 1.61231 87.75 1.61231H76.7C76.2691 1.61231 75.8557 1.78219 75.551 2.0846C75.2462 2.387 75.075 2.79714 75.075 3.22481C74.9885 5.00381 74.2154 6.68155 72.916 7.91022C71.6166 9.1389 69.8905 9.82428 68.0957 9.82428C66.3008 9.82428 64.5747 9.1389 63.2753 7.91022C61.9759 6.68155 61.2028 5.00381 61.1163 3.22481C61.1163 2.79714 60.9451 2.387 60.6403 2.0846C60.3356 1.78219 59.9223 1.61231 59.4913 1.61231H48.4413C47.7756 1.61198 47.1116 1.67679 46.4588 1.80581C44.1375 1.48047 41.7794 2.05825 39.8775 3.41831L31.59 9.23943C31.4143 9.36164 31.2647 9.51718 31.1498 9.69707C31.035 9.87696 30.9572 10.0776 30.9209 10.2875C30.8847 10.4974 30.8907 10.7124 30.9386 10.9199C30.9865 11.1275 31.0753 11.3236 31.2 11.4969C32.1669 12.855 32.5509 14.5384 32.2675 16.1772C31.9841 17.8161 31.0566 19.2762 29.6888 20.2367ZM58.045 4.83731C58.442 7.21079 59.675 9.36745 61.5244 10.9232C63.3739 12.479 65.7198 13.3329 68.1444 13.3329C70.569 13.3329 72.9149 12.479 74.7644 10.9232C76.6139 9.36745 77.8468 7.21079 78.2438 4.83731H87.75C89.4739 4.83731 91.1272 5.51686 92.3462 6.72647C93.5652 7.93608 94.25 9.57666 94.25 11.2873V26.7673C92.4782 27.1923 90.902 28.1962 89.7746 29.6176C88.6472 31.039 88.0343 32.7952 88.0343 34.6041C88.0343 36.4129 88.6472 38.1691 89.7746 39.5905C90.902 41.0119 92.4782 42.0158 94.25 42.4408V91.9123C94.25 93.623 93.5652 95.2635 92.3462 96.4731C91.1272 97.6828 89.4739 98.3623 87.75 98.3623H48.49C46.7661 98.3623 45.1128 97.6828 43.8938 96.4731C42.6749 95.2635 41.99 93.623 41.99 91.9123V42.5053C43.7618 42.0803 45.3381 41.0764 46.4655 39.655C47.5929 38.2336 48.2058 36.4774 48.2058 34.6686C48.2058 32.8597 47.5929 31.1035 46.4655 29.6821C45.3381 28.2607 43.7618 27.2568 41.99 26.8318V11.2873C41.99 9.57666 42.6749 7.93608 43.8938 6.72647C45.1128 5.51686 46.7661 4.83731 48.49 4.83731H58.045ZM34.6775 11.0293L39.4225 7.69143C38.9456 8.83151 38.6972 10.0529 38.6913 11.2873V28.2186C38.6913 28.6462 38.8625 29.0564 39.1672 29.3588C39.472 29.6612 39.8853 29.8311 40.3163 29.8311C41.0142 29.7168 41.7288 29.7547 42.4104 29.9419C43.0921 30.1292 43.7246 30.4614 44.2639 30.9156C44.8032 31.3697 45.2365 31.9348 45.5336 32.5718C45.8308 33.2087 45.9847 33.9022 45.9847 34.6041C45.9847 35.3059 45.8308 35.9994 45.5336 36.6363C45.2365 37.2733 44.8032 37.8384 44.2639 38.2926C43.7246 38.7467 43.0921 39.0789 42.4104 39.2662C41.7288 39.4535 41.0142 39.4913 40.3163 39.3771C39.8853 39.3771 39.472 39.5469 39.1672 39.8493C38.8625 40.1517 38.6913 40.5619 38.6913 40.9896V74.2554L27.625 58.6303C28.7908 57.3651 29.4834 55.7411 29.587 54.0298C29.6905 52.3186 29.1987 50.6239 28.1938 49.2294C27.0412 47.6084 25.2882 46.5068 23.3188 46.1657C21.8945 45.9134 20.4271 46.0759 19.0938 46.6333L10.7413 35.0394C9.83647 33.7664 9.47719 32.1892 9.7422 30.6538C10.0072 29.1183 10.8749 27.7497 12.155 26.8479L19.2725 21.8331C20.8717 23.4148 22.9813 24.3869 25.2309 24.5786C27.4806 24.7703 29.7263 24.1693 31.5738 22.8812C33.4093 21.5802 34.7258 19.6805 35.2931 17.5142C35.8604 15.3478 35.6425 13.0525 34.6775 11.0293Z" fill="#FBBF49"/>
</g>
</svg>