<svg xmlns="http://www.w3.org/2000/svg" fill="none" viewBox="0.59 0.14 40.82 38.13">
<path d="M33.9434 20.625C33.2659 20.6251 32.6037 20.8261 32.0405 21.2025C31.4772 21.579 31.0383 22.114 30.7791 22.7399C30.5199 23.3659 30.4522 24.0546 30.5845 24.719C30.7167 25.3834 31.043 25.9937 31.5222 26.4727C32.0013 26.9517 32.6116 27.2778 33.2761 27.4099C33.9406 27.542 34.6293 27.474 35.2551 27.2147C35.881 26.9553 36.4159 26.5162 36.7922 25.9529C37.1685 25.3895 37.3693 24.7273 37.3692 24.0498C37.3682 23.1416 37.0069 22.2709 36.3647 21.6288C35.7224 20.9867 34.8516 20.6257 33.9434 20.625ZM33.9434 25.4756C33.6615 25.4755 33.386 25.3918 33.1517 25.2352C32.9174 25.0785 32.7348 24.8559 32.627 24.5955C32.5191 24.3351 32.491 24.0485 32.546 23.7721C32.601 23.4957 32.7367 23.2418 32.936 23.0425C33.1353 22.8432 33.3892 22.7074 33.6657 22.6524C33.9421 22.5974 34.2286 22.6256 34.4891 22.7334C34.7495 22.8412 34.9721 23.0238 35.1287 23.2581C35.2854 23.4924 35.3691 23.7679 35.3692 24.0498C35.3688 24.4278 35.2184 24.7903 34.9511 25.0576C34.6838 25.3249 34.3214 25.4752 33.9434 25.4756Z" fill="white"/>
<path d="M41.4102 16.1299C41.4079 15.9787 41.3707 15.8301 41.3015 15.6957C41.0194 14.0562 40.1677 12.5689 38.8965 11.4959C37.6252 10.4228 36.0161 9.83292 34.3525 9.83007H32.4697V1.14062C32.4697 0.97785 32.43 0.817544 32.3539 0.673613C32.2779 0.529682 32.1679 0.406474 32.0335 0.314682C31.8991 0.222889 31.7443 0.165285 31.5826 0.146867C31.4209 0.128449 31.2571 0.149774 31.1055 0.208992L6.01367 10.0286C4.47073 10.3969 3.09664 11.2738 2.11268 12.518C1.12871 13.7622 0.592136 15.3014 0.589355 16.8877V31.2129C0.591492 33.0841 1.33581 34.8781 2.65901 36.2012C3.98221 37.5243 5.77623 38.2685 7.64746 38.2705H34.3525C36.2237 38.2684 38.0176 37.5241 39.3407 36.201C40.6638 34.8779 41.408 33.084 41.4102 31.2129V16.8877C41.4102 16.6833 41.3966 16.4821 41.3795 16.282C41.3939 16.2322 41.4041 16.1814 41.4102 16.1299ZM39.0772 15.1299H2.92242C3.33842 14.0221 4.13 13.0954 5.15917 12.5114L6.63976 11.932C6.97141 11.8644 7.309 11.8303 7.64746 11.8301H34.3525C35.3825 11.8329 36.3871 12.1504 37.2316 12.7402C38.076 13.33 38.72 14.1638 39.0772 15.1299ZM30.4697 9.83007H12.0102L30.4697 2.60546V9.83007ZM34.3525 36.2705H7.64746C6.30648 36.2691 5.02082 35.7358 4.07256 34.7876C3.1243 33.8395 2.59089 32.5539 2.58936 31.2129V17.1299H39.4102V31.2129C39.4087 32.5538 38.8754 33.8394 37.9272 34.7876C36.9791 35.7358 35.6935 36.2691 34.3525 36.2705Z" fill="white"/>
</svg>